<?xml version="1.0" encoding="utf-8" standalone="no"?>
<!DOCTYPE svg PUBLIC "-//W3C//DTD SVG 1.1//EN"
  "http://www.w3.org/Graphics/SVG/1.1/DTD/svg11.dtd">
<svg xmlns:xlink="http://www.w3.org/1999/xlink" width="476.220472pt" height="130.393701pt" viewBox="0 0 476.220472 130.393701" xmlns="http://www.w3.org/2000/svg" version="1.1">
 <metadata>
  <rdf:RDF xmlns:dc="http://purl.org/dc/elements/1.1/" xmlns:cc="http://creativecommons.org/ns#" xmlns:rdf="http://www.w3.org/1999/02/22-rdf-syntax-ns#">
   <cc:Work>
    <dc:type rdf:resource="http://purl.org/dc/dcmitype/StillImage"/>
    <dc:date>2026-10-06T22:42:54.015951</dc:date>
    <dc:format>image/svg+xml</dc:format>
    <dc:creator>
     <cc:Agent>
      <dc:title>Matplotlib v3.11.2, https://matplotlib.org/</dc:title>
     </cc:Agent>
    </dc:creator>
   </cc:Work>
  </rdf:RDF>
 </metadata>
 <defs>
  <style type="text/css">*{stroke-linejoin: round; stroke-linecap: butt}</style>
 </defs>
 <g id="figure_1">
  <g id="patch_1">
   <path d="M 0 130.393701 
L 476.220472 130.393701 
L 476.220472 0 
L 0 0 
z
" style="fill: #ffffff"/>
  </g>
  <g id="axes_1">
   <g id="patch_2">
    <path d="M 5.669291 51.023622 
L 141.732283 51.023622 
L 141.732283 18.425197 
L 5.669291 18.425197 
z
" clip-path="url(#p5ab99f2e84)" style="fill: #235e83"/>
   </g>
   <g id="patch_3">
    <path d="M 167.244094 51.023622 
L 303.307087 51.023622 
L 303.307087 18.425197 
L 167.244094 18.425197 
z
" clip-path="url(#p5ab99f2e84)" style="fill: #235e83"/>
   </g>
   <g id="patch_4">
    <path d="M 328.818898 51.023622 
L 470.551181 51.023622 
L 470.551181 18.425197 
L 328.818898 18.425197 
z
" clip-path="url(#p5ab99f2e84)" style="fill: #235e83"/>
   </g>
   <g id="patch_5">
    <path d="M 145.150502 34.866142 
Q 153.780824 34.866142 161.069504 34.866142 
" clip-path="url(#p5ab99f2e84)" style="fill: none; stroke: #83919d; stroke-width: 1.2; stroke-linecap: round"/>
    <path d="M 157.469504 33.066142 
L 161.069504 34.866142 
L 157.469504 36.666142 
z
" clip-path="url(#p5ab99f2e84)" style="fill: #83919d; stroke: #83919d; stroke-width: 1.2; stroke-linecap: round"/>
   </g>
   <g id="patch_6">
    <path d="M 306.725305 34.866142 
Q 315.355627 34.866142 322.644307 34.866142 
" clip-path="url(#p5ab99f2e84)" style="fill: none; stroke: #83919d; stroke-width: 1.2; stroke-linecap: round"/>
    <path d="M 319.044307 33.066142 
L 322.644307 34.866142 
L 319.044307 36.666142 
z
" clip-path="url(#p5ab99f2e84)" style="fill: #83919d; stroke: #83919d; stroke-width: 1.2; stroke-linecap: round"/>
   </g>
   <g id="patch_7">
    <path d="M 5.669291 109.133858 
L 141.732283 109.133858 
L 141.732283 80.787402 
L 5.669291 80.787402 
z
" clip-path="url(#p5ab99f2e84)" style="fill: #eef3f6"/>
   </g>
   <g id="patch_8">
    <path d="M 167.244094 109.133858 
L 303.307087 109.133858 
L 303.307087 80.787402 
L 167.244094 80.787402 
z
" clip-path="url(#p5ab99f2e84)" style="fill: #f6e7cf"/>
   </g>
   <g id="patch_9">
    <path d="M 328.818898 109.133858 
L 470.551181 109.133858 
L 470.551181 80.787402 
L 328.818898 80.787402 
z
" clip-path="url(#p5ab99f2e84)" style="fill: #eef3f6"/>
   </g>
   <g id="patch_10">
    <path d="M 145.150502 94.96063 
Q 153.780824 94.96063 161.069504 94.96063 
" clip-path="url(#p5ab99f2e84)" style="fill: none; stroke: #83919d; stroke-width: 1.2; stroke-linecap: round"/>
    <path d="M 157.469504 93.16063 
L 161.069504 94.96063 
L 157.469504 96.76063 
z
" clip-path="url(#p5ab99f2e84)" style="fill: #83919d; stroke: #83919d; stroke-width: 1.2; stroke-linecap: round"/>
   </g>
   <g id="patch_11">
    <path d="M 306.725305 94.96063 
Q 315.355627 94.96063 322.644307 94.96063 
" clip-path="url(#p5ab99f2e84)" style="fill: none; stroke: #d99736; stroke-width: 1.2; stroke-linecap: round"/>
    <path d="M 319.044307 93.16063 
L 322.644307 94.96063 
L 319.044307 96.76063 
z
" clip-path="url(#p5ab99f2e84)" style="fill: #d99736; stroke: #d99736; stroke-width: 1.2; stroke-linecap: round"/>
   </g>
   <g id="patch_12">
    <path d="M 399.685039 54.442879 
Q 399.685039 65.906896 399.685039 76.029272 
" clip-path="url(#p5ab99f2e84)" style="fill: none; stroke: #83919d; stroke-width: 1.2; stroke-linecap: round"/>
    <path d="M 401.485039 72.429272 
L 399.685039 76.029272 
L 397.885039 72.429272 
z
" clip-path="url(#p5ab99f2e84)" style="fill: #83919d; stroke: #83919d; stroke-width: 1.2; stroke-linecap: round"/>
   </g>
   <g id="line2d_1">
    <path d="M 143.149606 34.866142 
L 164.409449 34.866142 
" clip-path="url(#p5ab99f2e84)" style="fill: none; stroke: #83919d; stroke-width: 1.2; stroke-linecap: square"/>
   </g>
   <g id="line2d_2">
    <path d="M 304.724409 34.866142 
L 325.984252 34.866142 
" clip-path="url(#p5ab99f2e84)" style="fill: none; stroke: #83919d; stroke-width: 1.2; stroke-linecap: square"/>
   </g>
   <g id="line2d_3">
    <path d="M 143.149606 94.96063 
L 164.409449 94.96063 
" clip-path="url(#p5ab99f2e84)" style="fill: none; stroke: #83919d; stroke-width: 1.2; stroke-linecap: square"/>
   </g>
   <g id="line2d_4">
    <path d="M 304.724409 94.96063 
L 325.984252 94.96063 
" clip-path="url(#p5ab99f2e84)" style="fill: none; stroke: #d99736; stroke-width: 1.2; stroke-linecap: square"/>
   </g>
   <g id="line2d_5">
    <path d="M 399.685039 52.440945 
L 399.685039 79.370079 
" clip-path="url(#p5ab99f2e84)" style="fill: none; stroke: #83919d; stroke-width: 1.2; stroke-linecap: square"/>
   </g>
   <g id="text_1">
    <!-- Priorities -->
    <g style="fill: #ffffff" transform="translate(49.712037 31.685339) scale(0.12 -0.12)">
     <defs>
      <path id="TimesNewRomanPS-BoldMT-33" d="M 1728 1919 
L 1728 744 
Q 1728 400 1770 311 
Q 1813 222 1920 169 
Q 2028 116 2316 116 
L 2316 0 
L 163 0 
L 163 116 
Q 456 116 561 170 
Q 666 225 708 312 
Q 750 400 750 744 
L 750 3494 
Q 750 3838 708 3927 
Q 666 4016 559 4069 
Q 453 4122 163 4122 
L 163 4238 
L 2009 4238 
Q 2922 4238 3319 3913 
Q 3716 3588 3716 3100 
Q 3716 2688 3459 2394 
Q 3203 2100 2753 1994 
Q 2450 1919 1728 1919 
z
M 1728 3994 
L 1728 2163 
Q 1831 2156 1884 2156 
Q 2266 2156 2472 2382 
Q 2678 2609 2678 3084 
Q 2678 3556 2472 3775 
Q 2266 3994 1856 3994 
L 1728 3994 
z
" transform="scale(0.015625)"/>
      <path id="TimesNewRomanPS-BoldMT-55" d="M 1428 2922 
L 1428 2259 
Q 1719 2713 1937 2861 
Q 2156 3009 2359 3009 
Q 2534 3009 2639 2901 
Q 2744 2794 2744 2597 
Q 2744 2388 2642 2272 
Q 2541 2156 2397 2156 
Q 2231 2156 2109 2262 
Q 1988 2369 1966 2381 
Q 1934 2400 1894 2400 
Q 1803 2400 1722 2331 
Q 1594 2225 1528 2028 
Q 1428 1725 1428 1359 
L 1428 688 
L 1431 513 
Q 1431 334 1453 284 
Q 1491 200 1564 161 
Q 1638 122 1813 113 
L 1813 0 
L 234 0 
L 234 113 
Q 425 128 492 217 
Q 559 306 559 688 
L 559 2303 
Q 559 2553 534 2622 
Q 503 2709 443 2750 
Q 384 2791 234 2806 
L 234 2922 
L 1428 2922 
z
" transform="scale(0.015625)"/>
      <path id="TimesNewRomanPS-BoldMT-4c" d="M 919 4338 
Q 1122 4338 1262 4195 
Q 1403 4053 1403 3853 
Q 1403 3653 1261 3512 
Q 1119 3372 919 3372 
Q 719 3372 578 3512 
Q 438 3653 438 3853 
Q 438 4053 578 4195 
Q 719 4338 919 4338 
z
M 1356 2922 
L 1356 606 
Q 1356 297 1428 211 
Q 1500 125 1709 113 
L 1709 0 
L 131 0 
L 131 113 
Q 325 119 419 225 
Q 481 297 481 606 
L 481 2313 
Q 481 2622 409 2708 
Q 338 2794 131 2806 
L 131 2922 
L 1356 2922 
z
" transform="scale(0.015625)"/>
      <path id="TimesNewRomanPS-BoldMT-52" d="M 1594 3009 
Q 1975 3009 2303 2812 
Q 2631 2616 2801 2253 
Q 2972 1891 2972 1459 
Q 2972 838 2656 419 
Q 2275 -88 1603 -88 
Q 944 -88 587 375 
Q 231 838 231 1447 
Q 231 2075 595 2542 
Q 959 3009 1594 3009 
z
M 1606 2788 
Q 1447 2788 1333 2667 
Q 1219 2547 1183 2192 
Q 1147 1838 1147 1206 
Q 1147 872 1191 581 
Q 1225 359 1337 243 
Q 1450 128 1594 128 
Q 1734 128 1828 206 
Q 1950 313 1991 503 
Q 2053 800 2053 1703 
Q 2053 2234 1993 2432 
Q 1934 2631 1819 2722 
Q 1738 2788 1606 2788 
z
" transform="scale(0.015625)"/>
      <path id="TimesNewRomanPS-BoldMT-57" d="M 1375 3991 
L 1375 2922 
L 2069 2922 
L 2069 2613 
L 1375 2613 
L 1375 809 
Q 1375 556 1398 482 
Q 1422 409 1481 364 
Q 1541 319 1591 319 
Q 1794 319 1975 628 
L 2069 559 
Q 1816 -41 1247 -41 
Q 969 -41 776 114 
Q 584 269 531 459 
Q 500 566 500 1034 
L 500 2613 
L 119 2613 
L 119 2722 
Q 513 3000 789 3306 
Q 1066 3613 1272 3991 
L 1375 3991 
z
" transform="scale(0.015625)"/>
      <path id="TimesNewRomanPS-BoldMT-48" d="M 2691 1566 
L 1088 1566 
Q 1116 984 1397 647 
Q 1613 388 1916 388 
Q 2103 388 2256 492 
Q 2409 597 2584 869 
L 2691 800 
Q 2453 316 2165 114 
Q 1878 -88 1500 -88 
Q 850 -88 516 413 
Q 247 816 247 1413 
Q 247 2144 642 2576 
Q 1038 3009 1569 3009 
Q 2013 3009 2339 2645 
Q 2666 2281 2691 1566 
z
M 1922 1775 
Q 1922 2278 1867 2465 
Q 1813 2653 1697 2750 
Q 1631 2806 1522 2806 
Q 1359 2806 1256 2647 
Q 1072 2369 1072 1884 
L 1072 1775 
L 1922 1775 
z
" transform="scale(0.015625)"/>
      <path id="TimesNewRomanPS-BoldMT-56" d="M 2063 3003 
L 2109 2006 
L 2003 2006 
Q 1813 2450 1608 2612 
Q 1403 2775 1200 2775 
Q 1072 2775 981 2689 
Q 891 2603 891 2491 
Q 891 2406 953 2328 
Q 1053 2200 1512 1889 
Q 1972 1578 2117 1361 
Q 2263 1144 2263 875 
Q 2263 631 2141 397 
Q 2019 163 1797 37 
Q 1575 -88 1306 -88 
Q 1097 -88 747 44 
Q 653 78 619 78 
Q 516 78 447 -78 
L 344 -78 
L 294 972 
L 400 972 
Q 541 559 786 353 
Q 1031 147 1250 147 
Q 1400 147 1495 239 
Q 1591 331 1591 463 
Q 1591 613 1497 722 
Q 1403 831 1078 1053 
Q 600 1384 459 1559 
Q 253 1816 253 2125 
Q 253 2463 486 2736 
Q 719 3009 1159 3009 
Q 1397 3009 1619 2894 
Q 1703 2847 1756 2847 
Q 1813 2847 1847 2870 
Q 1881 2894 1956 3003 
L 2063 3003 
z
" transform="scale(0.015625)"/>
     </defs>
     <use xlink:href="#TimesNewRomanPS-BoldMT-33"/>
     <use xlink:href="#TimesNewRomanPS-BoldMT-55" transform="translate(61.078125 0)"/>
     <use xlink:href="#TimesNewRomanPS-BoldMT-4c" transform="translate(105.46875 0)"/>
     <use xlink:href="#TimesNewRomanPS-BoldMT-52" transform="translate(133.25 0)"/>
     <use xlink:href="#TimesNewRomanPS-BoldMT-55" transform="translate(183.25 0)"/>
     <use xlink:href="#TimesNewRomanPS-BoldMT-4c" transform="translate(227.640625 0)"/>
     <use xlink:href="#TimesNewRomanPS-BoldMT-57" transform="translate(255.421875 0)"/>
     <use xlink:href="#TimesNewRomanPS-BoldMT-4c" transform="translate(288.71875 0)"/>
     <use xlink:href="#TimesNewRomanPS-BoldMT-48" transform="translate(316.5 0)"/>
     <use xlink:href="#TimesNewRomanPS-BoldMT-56" transform="translate(360.890625 0)"/>
    </g>
   </g>
   <g id="text_2">
    <!-- Animals + habitat -->
    <g style="fill: #ffffff" transform="translate(30.65735 44.824084) scale(0.12 -0.12)">
     <defs>
      <path id="TimesNewRomanPSMT-24" d="M 2928 1419 
L 1288 1419 
L 1000 750 
Q 894 503 894 381 
Q 894 284 986 211 
Q 1078 138 1384 116 
L 1384 0 
L 50 0 
L 50 116 
Q 316 163 394 238 
Q 553 388 747 847 
L 2238 4334 
L 2347 4334 
L 3822 809 
Q 4000 384 4145 257 
Q 4291 131 4550 116 
L 4550 0 
L 2878 0 
L 2878 116 
Q 3131 128 3220 200 
Q 3309 272 3309 375 
Q 3309 513 3184 809 
L 2928 1419 
z
M 2841 1650 
L 2122 3363 
L 1384 1650 
L 2841 1650 
z
" transform="scale(0.015625)"/>
      <path id="TimesNewRomanPSMT-51" d="M 1034 2341 
Q 1538 2947 1994 2947 
Q 2228 2947 2397 2830 
Q 2566 2713 2666 2444 
Q 2734 2256 2734 1869 
L 2734 647 
Q 2734 375 2778 278 
Q 2813 200 2889 156 
Q 2966 113 3172 113 
L 3172 0 
L 1756 0 
L 1756 113 
L 1816 113 
Q 2016 113 2095 173 
Q 2175 234 2206 353 
Q 2219 400 2219 647 
L 2219 1819 
Q 2219 2209 2117 2386 
Q 2016 2563 1775 2563 
Q 1403 2563 1034 2156 
L 1034 647 
Q 1034 356 1069 288 
Q 1113 197 1189 155 
Q 1266 113 1500 113 
L 1500 0 
L 84 0 
L 84 113 
L 147 113 
Q 366 113 442 223 
Q 519 334 519 647 
L 519 1709 
Q 519 2225 495 2337 
Q 472 2450 423 2490 
Q 375 2531 294 2531 
Q 206 2531 84 2484 
L 38 2597 
L 900 2947 
L 1034 2947 
L 1034 2341 
z
" transform="scale(0.015625)"/>
      <path id="TimesNewRomanPSMT-4c" d="M 928 4444 
Q 1059 4444 1151 4351 
Q 1244 4259 1244 4128 
Q 1244 3997 1151 3903 
Q 1059 3809 928 3809 
Q 797 3809 703 3903 
Q 609 3997 609 4128 
Q 609 4259 701 4351 
Q 794 4444 928 4444 
z
M 1188 2947 
L 1188 647 
Q 1188 378 1227 289 
Q 1266 200 1342 156 
Q 1419 113 1622 113 
L 1622 0 
L 231 0 
L 231 113 
Q 441 113 512 153 
Q 584 194 626 287 
Q 669 381 669 647 
L 669 1750 
Q 669 2216 641 2353 
Q 619 2453 572 2492 
Q 525 2531 444 2531 
Q 356 2531 231 2484 
L 188 2597 
L 1050 2947 
L 1188 2947 
z
" transform="scale(0.015625)"/>
      <path id="TimesNewRomanPSMT-50" d="M 1050 2338 
Q 1363 2650 1419 2697 
Q 1559 2816 1721 2881 
Q 1884 2947 2044 2947 
Q 2313 2947 2506 2790 
Q 2700 2634 2766 2338 
Q 3088 2713 3309 2830 
Q 3531 2947 3766 2947 
Q 3994 2947 4170 2830 
Q 4347 2713 4450 2447 
Q 4519 2266 4519 1878 
L 4519 647 
Q 4519 378 4559 278 
Q 4591 209 4675 161 
Q 4759 113 4950 113 
L 4950 0 
L 3538 0 
L 3538 113 
L 3597 113 
Q 3781 113 3884 184 
Q 3956 234 3988 344 
Q 4000 397 4000 647 
L 4000 1878 
Q 4000 2228 3916 2372 
Q 3794 2572 3525 2572 
Q 3359 2572 3192 2489 
Q 3025 2406 2788 2181 
L 2781 2147 
L 2788 2013 
L 2788 647 
Q 2788 353 2820 281 
Q 2853 209 2943 161 
Q 3034 113 3253 113 
L 3253 0 
L 1806 0 
L 1806 113 
Q 2044 113 2133 169 
Q 2222 225 2256 338 
Q 2272 391 2272 647 
L 2272 1878 
Q 2272 2228 2169 2381 
Q 2031 2581 1784 2581 
Q 1616 2581 1450 2491 
Q 1191 2353 1050 2181 
L 1050 647 
Q 1050 366 1089 281 
Q 1128 197 1204 155 
Q 1281 113 1516 113 
L 1516 0 
L 100 0 
L 100 113 
Q 297 113 375 155 
Q 453 197 493 289 
Q 534 381 534 647 
L 534 1741 
Q 534 2213 506 2350 
Q 484 2453 437 2492 
Q 391 2531 309 2531 
Q 222 2531 100 2484 
L 53 2597 
L 916 2947 
L 1050 2947 
L 1050 2338 
z
" transform="scale(0.015625)"/>
      <path id="TimesNewRomanPSMT-44" d="M 1822 413 
Q 1381 72 1269 19 
Q 1100 -59 909 -59 
Q 613 -59 420 144 
Q 228 347 228 678 
Q 228 888 322 1041 
Q 450 1253 767 1440 
Q 1084 1628 1822 1897 
L 1822 2009 
Q 1822 2438 1686 2597 
Q 1550 2756 1291 2756 
Q 1094 2756 978 2650 
Q 859 2544 859 2406 
L 866 2225 
Q 866 2081 792 2003 
Q 719 1925 600 1925 
Q 484 1925 411 2006 
Q 338 2088 338 2228 
Q 338 2497 613 2722 
Q 888 2947 1384 2947 
Q 1766 2947 2009 2819 
Q 2194 2722 2281 2516 
Q 2338 2381 2338 1966 
L 2338 994 
Q 2338 584 2353 492 
Q 2369 400 2405 369 
Q 2441 338 2488 338 
Q 2538 338 2575 359 
Q 2641 400 2828 588 
L 2828 413 
Q 2478 -56 2159 -56 
Q 2006 -56 1915 50 
Q 1825 156 1822 413 
z
M 1822 616 
L 1822 1706 
Q 1350 1519 1213 1441 
Q 966 1303 859 1153 
Q 753 1003 753 825 
Q 753 600 887 451 
Q 1022 303 1197 303 
Q 1434 303 1822 616 
z
" transform="scale(0.015625)"/>
      <path id="TimesNewRomanPSMT-4f" d="M 1184 4444 
L 1184 647 
Q 1184 378 1223 290 
Q 1263 203 1344 158 
Q 1425 113 1647 113 
L 1647 0 
L 244 0 
L 244 113 
Q 441 113 512 153 
Q 584 194 625 287 
Q 666 381 666 647 
L 666 3247 
Q 666 3731 644 3842 
Q 622 3953 573 3993 
Q 525 4034 450 4034 
Q 369 4034 244 3984 
L 191 4094 
L 1044 4444 
L 1184 4444 
z
" transform="scale(0.015625)"/>
      <path id="TimesNewRomanPSMT-56" d="M 2050 2947 
L 2050 1972 
L 1947 1972 
Q 1828 2431 1642 2597 
Q 1456 2763 1169 2763 
Q 950 2763 815 2647 
Q 681 2531 681 2391 
Q 681 2216 781 2091 
Q 878 1963 1175 1819 
L 1631 1597 
Q 2266 1288 2266 781 
Q 2266 391 1970 151 
Q 1675 -88 1309 -88 
Q 1047 -88 709 6 
Q 606 38 541 38 
Q 469 38 428 -44 
L 325 -44 
L 325 978 
L 428 978 
Q 516 541 762 319 
Q 1009 97 1316 97 
Q 1531 97 1667 223 
Q 1803 350 1803 528 
Q 1803 744 1651 891 
Q 1500 1038 1047 1263 
Q 594 1488 453 1669 
Q 313 1847 313 2119 
Q 313 2472 555 2709 
Q 797 2947 1181 2947 
Q 1350 2947 1591 2875 
Q 1750 2828 1803 2828 
Q 1853 2828 1881 2850 
Q 1909 2872 1947 2947 
L 2050 2947 
z
" transform="scale(0.015625)"/>
      <path id="TimesNewRomanPSMT-3" transform="scale(0.015625)"/>
      <path id="TimesNewRomanPSMT-e" d="M 1672 441 
L 1672 2000 
L 116 2000 
L 116 2256 
L 1672 2256 
L 1672 3809 
L 1922 3809 
L 1922 2256 
L 3484 2256 
L 3484 2000 
L 1922 2000 
L 1922 441 
L 1672 441 
z
" transform="scale(0.015625)"/>
      <path id="TimesNewRomanPSMT-4b" d="M 1041 4444 
L 1041 2350 
Q 1388 2731 1591 2839 
Q 1794 2947 1997 2947 
Q 2241 2947 2416 2812 
Q 2591 2678 2675 2391 
Q 2734 2191 2734 1659 
L 2734 647 
Q 2734 375 2778 275 
Q 2809 200 2884 156 
Q 2959 113 3159 113 
L 3159 0 
L 1753 0 
L 1753 113 
L 1819 113 
Q 2019 113 2097 173 
Q 2175 234 2206 353 
Q 2216 403 2216 647 
L 2216 1659 
Q 2216 2128 2167 2275 
Q 2119 2422 2012 2495 
Q 1906 2569 1756 2569 
Q 1603 2569 1437 2487 
Q 1272 2406 1041 2159 
L 1041 647 
Q 1041 353 1073 281 
Q 1106 209 1195 161 
Q 1284 113 1503 113 
L 1503 0 
L 84 0 
L 84 113 
Q 275 113 384 172 
Q 447 203 484 290 
Q 522 378 522 647 
L 522 3238 
Q 522 3728 498 3840 
Q 475 3953 426 3993 
Q 378 4034 297 4034 
Q 231 4034 84 3984 
L 41 4094 
L 897 4444 
L 1041 4444 
z
" transform="scale(0.015625)"/>
      <path id="TimesNewRomanPSMT-45" d="M 984 2369 
Q 1400 2947 1881 2947 
Q 2322 2947 2650 2570 
Q 2978 2194 2978 1541 
Q 2978 778 2472 313 
Q 2038 -88 1503 -88 
Q 1253 -88 995 3 
Q 738 94 469 275 
L 469 3241 
Q 469 3728 445 3840 
Q 422 3953 372 3993 
Q 322 4034 247 4034 
Q 159 4034 28 3984 
L -16 4094 
L 844 4444 
L 984 4444 
L 984 2369 
z
M 984 2169 
L 984 456 
Q 1144 300 1314 220 
Q 1484 141 1663 141 
Q 1947 141 2192 453 
Q 2438 766 2438 1363 
Q 2438 1913 2192 2208 
Q 1947 2503 1634 2503 
Q 1469 2503 1303 2419 
Q 1178 2356 984 2169 
z
" transform="scale(0.015625)"/>
      <path id="TimesNewRomanPSMT-57" d="M 1031 3803 
L 1031 2863 
L 1700 2863 
L 1700 2644 
L 1031 2644 
L 1031 788 
Q 1031 509 1111 412 
Q 1191 316 1316 316 
Q 1419 316 1516 380 
Q 1613 444 1666 569 
L 1788 569 
Q 1678 263 1478 108 
Q 1278 -47 1066 -47 
Q 922 -47 784 33 
Q 647 113 581 261 
Q 516 409 516 719 
L 516 2644 
L 63 2644 
L 63 2747 
Q 234 2816 414 2980 
Q 594 3144 734 3369 
Q 806 3488 934 3803 
L 1031 3803 
z
" transform="scale(0.015625)"/>
     </defs>
     <use xlink:href="#TimesNewRomanPSMT-24"/>
     <use xlink:href="#TimesNewRomanPSMT-51" transform="translate(72.21875 0)"/>
     <use xlink:href="#TimesNewRomanPSMT-4c" transform="translate(122.21875 0)"/>
     <use xlink:href="#TimesNewRomanPSMT-50" transform="translate(150 0)"/>
     <use xlink:href="#TimesNewRomanPSMT-44" transform="translate(227.78125 0)"/>
     <use xlink:href="#TimesNewRomanPSMT-4f" transform="translate(272.171875 0)"/>
     <use xlink:href="#TimesNewRomanPSMT-56" transform="translate(299.953125 0)"/>
     <use xlink:href="#TimesNewRomanPSMT-3" transform="translate(338.875 0)"/>
     <use xlink:href="#TimesNewRomanPSMT-e" transform="translate(363.875 0)"/>
     <use xlink:href="#TimesNewRomanPSMT-3" transform="translate(420.265625 0)"/>
     <use xlink:href="#TimesNewRomanPSMT-4b" transform="translate(445.265625 0)"/>
     <use xlink:href="#TimesNewRomanPSMT-44" transform="translate(495.265625 0)"/>
     <use xlink:href="#TimesNewRomanPSMT-45" transform="translate(539.65625 0)"/>
     <use xlink:href="#TimesNewRomanPSMT-4c" transform="translate(589.65625 0)"/>
     <use xlink:href="#TimesNewRomanPSMT-57" transform="translate(617.4375 0)"/>
     <use xlink:href="#TimesNewRomanPSMT-44" transform="translate(645.21875 0)"/>
     <use xlink:href="#TimesNewRomanPSMT-57" transform="translate(689.609375 0)"/>
    </g>
   </g>
   <g id="text_3">
    <!-- Routes + response -->
    <g style="fill: #ffffff" transform="translate(188.964966 31.681941) scale(0.12 -0.12)">
     <defs>
      <path id="TimesNewRomanPS-BoldMT-35" d="M 1700 1931 
L 1700 744 
Q 1700 400 1742 311 
Q 1784 222 1890 169 
Q 1997 116 2288 116 
L 2288 0 
L 119 0 
L 119 116 
Q 413 116 517 170 
Q 622 225 664 312 
Q 706 400 706 744 
L 706 3494 
Q 706 3838 664 3927 
Q 622 4016 515 4069 
Q 409 4122 119 4122 
L 119 4238 
L 2088 4238 
Q 2856 4238 3212 4131 
Q 3569 4025 3794 3739 
Q 4019 3453 4019 3069 
Q 4019 2600 3681 2294 
Q 3466 2100 3078 2003 
L 4097 569 
Q 4297 291 4381 222 
Q 4509 125 4678 116 
L 4678 0 
L 3344 0 
L 1978 1931 
L 1700 1931 
z
M 1700 4009 
L 1700 2153 
L 1878 2153 
Q 2313 2153 2528 2233 
Q 2744 2313 2867 2520 
Q 2991 2728 2991 3063 
Q 2991 3547 2764 3778 
Q 2538 4009 2034 4009 
L 1700 4009 
z
" transform="scale(0.015625)"/>
      <path id="TimesNewRomanPS-BoldMT-58" d="M 3038 2922 
L 3038 634 
Q 3038 300 3100 217 
Q 3163 134 3353 113 
L 3353 0 
L 2163 0 
L 2163 391 
Q 1953 141 1743 26 
Q 1534 -88 1275 -88 
Q 1028 -88 836 64 
Q 644 216 578 419 
Q 513 622 513 1128 
L 513 2288 
Q 513 2619 452 2700 
Q 391 2781 197 2806 
L 197 2922 
L 1388 2922 
L 1388 925 
Q 1388 613 1417 522 
Q 1447 431 1511 384 
Q 1575 338 1659 338 
Q 1772 338 1863 397 
Q 1988 478 2163 725 
L 2163 2288 
Q 2163 2619 2102 2700 
Q 2041 2781 1847 2806 
L 1847 2922 
L 3038 2922 
z
" transform="scale(0.015625)"/>
      <path id="TimesNewRomanPS-BoldMT-3" transform="scale(0.015625)"/>
      <path id="TimesNewRomanPS-BoldMT-e" d="M 125 2325 
L 1628 2325 
L 1628 3825 
L 2038 3825 
L 2038 2325 
L 3541 2325 
L 3541 1913 
L 2038 1913 
L 2038 425 
L 1628 425 
L 1628 1913 
L 125 1913 
L 125 2325 
z
" transform="scale(0.015625)"/>
      <path id="TimesNewRomanPS-BoldMT-53" d="M 1347 297 
L 1347 -791 
Q 1347 -1016 1383 -1097 
Q 1419 -1178 1494 -1215 
Q 1569 -1253 1788 -1253 
L 1788 -1369 
L 122 -1369 
L 122 -1253 
Q 316 -1247 409 -1144 
Q 472 -1072 472 -772 
L 472 2313 
Q 472 2622 400 2708 
Q 328 2794 122 2806 
L 122 2922 
L 1347 2922 
L 1347 2538 
Q 1500 2763 1659 2863 
Q 1888 3009 2156 3009 
Q 2478 3009 2742 2806 
Q 3006 2603 3143 2245 
Q 3281 1888 3281 1475 
Q 3281 1031 3139 664 
Q 2997 297 2726 104 
Q 2456 -88 2125 -88 
Q 1884 -88 1675 19 
Q 1519 100 1347 297 
z
M 1347 613 
Q 1616 231 1922 231 
Q 2091 231 2200 409 
Q 2363 672 2363 1409 
Q 2363 2166 2184 2444 
Q 2066 2628 1866 2628 
Q 1550 2628 1347 2172 
L 1347 613 
z
" transform="scale(0.015625)"/>
      <path id="TimesNewRomanPS-BoldMT-51" d="M 1409 2922 
L 1409 2544 
Q 1634 2788 1840 2898 
Q 2047 3009 2284 3009 
Q 2569 3009 2756 2851 
Q 2944 2694 3006 2459 
Q 3056 2281 3056 1775 
L 3056 638 
Q 3056 300 3117 217 
Q 3178 134 3372 113 
L 3372 0 
L 1894 0 
L 1894 113 
Q 2059 134 2131 250 
Q 2181 328 2181 638 
L 2181 1938 
Q 2181 2297 2153 2390 
Q 2125 2484 2058 2536 
Q 1991 2588 1909 2588 
Q 1641 2588 1409 2203 
L 1409 638 
Q 1409 309 1470 221 
Q 1531 134 1697 113 
L 1697 0 
L 219 0 
L 219 113 
Q 403 131 481 231 
Q 534 300 534 638 
L 534 2288 
Q 534 2619 473 2700 
Q 413 2781 219 2806 
L 219 2922 
L 1409 2922 
z
" transform="scale(0.015625)"/>
     </defs>
     <use xlink:href="#TimesNewRomanPS-BoldMT-35"/>
     <use xlink:href="#TimesNewRomanPS-BoldMT-52" transform="translate(72.21875 0)"/>
     <use xlink:href="#TimesNewRomanPS-BoldMT-58" transform="translate(122.21875 0)"/>
     <use xlink:href="#TimesNewRomanPS-BoldMT-57" transform="translate(177.828125 0)"/>
     <use xlink:href="#TimesNewRomanPS-BoldMT-48" transform="translate(211.125 0)"/>
     <use xlink:href="#TimesNewRomanPS-BoldMT-56" transform="translate(255.515625 0)"/>
     <use xlink:href="#TimesNewRomanPS-BoldMT-3" transform="translate(294.4375 0)"/>
     <use xlink:href="#TimesNewRomanPS-BoldMT-e" transform="translate(319.4375 0)"/>
     <use xlink:href="#TimesNewRomanPS-BoldMT-3" transform="translate(376.421875 0)"/>
     <use xlink:href="#TimesNewRomanPS-BoldMT-55" transform="translate(401.421875 0)"/>
     <use xlink:href="#TimesNewRomanPS-BoldMT-48" transform="translate(444 0)"/>
     <use xlink:href="#TimesNewRomanPS-BoldMT-56" transform="translate(488.390625 0)"/>
     <use xlink:href="#TimesNewRomanPS-BoldMT-53" transform="translate(527.3125 0)"/>
     <use xlink:href="#TimesNewRomanPS-BoldMT-52" transform="translate(582.921875 0)"/>
     <use xlink:href="#TimesNewRomanPS-BoldMT-51" transform="translate(632.921875 0)"/>
     <use xlink:href="#TimesNewRomanPS-BoldMT-56" transform="translate(688.53125 0)"/>
     <use xlink:href="#TimesNewRomanPS-BoldMT-48" transform="translate(727.453125 0)"/>
    </g>
   </g>
   <g id="text_4">
    <!-- Travel time -->
    <g style="fill: #ffffff" transform="translate(207.666216 44.824084) scale(0.12 -0.12)">
     <defs>
      <path id="TimesNewRomanPSMT-37" d="M 3703 4238 
L 3750 3244 
L 3631 3244 
Q 3597 3506 3538 3619 
Q 3441 3800 3280 3886 
Q 3119 3972 2856 3972 
L 2259 3972 
L 2259 734 
Q 2259 344 2344 247 
Q 2463 116 2709 116 
L 2856 116 
L 2856 0 
L 1059 0 
L 1059 116 
L 1209 116 
Q 1478 116 1591 278 
Q 1659 378 1659 734 
L 1659 3972 
L 1150 3972 
Q 853 3972 728 3928 
Q 566 3869 450 3700 
Q 334 3531 313 3244 
L 194 3244 
L 244 4238 
L 3703 4238 
z
" transform="scale(0.015625)"/>
      <path id="TimesNewRomanPSMT-55" d="M 1038 2947 
L 1038 2303 
Q 1397 2947 1775 2947 
Q 1947 2947 2059 2842 
Q 2172 2738 2172 2600 
Q 2172 2478 2090 2393 
Q 2009 2309 1897 2309 
Q 1788 2309 1652 2417 
Q 1516 2525 1450 2525 
Q 1394 2525 1328 2463 
Q 1188 2334 1038 2041 
L 1038 669 
Q 1038 431 1097 309 
Q 1138 225 1241 169 
Q 1344 113 1538 113 
L 1538 0 
L 72 0 
L 72 113 
Q 291 113 397 181 
Q 475 231 506 341 
Q 522 394 522 644 
L 522 1753 
Q 522 2253 501 2348 
Q 481 2444 426 2487 
Q 372 2531 291 2531 
Q 194 2531 72 2484 
L 41 2597 
L 906 2947 
L 1038 2947 
z
" transform="scale(0.015625)"/>
      <path id="TimesNewRomanPSMT-59" d="M 53 2863 
L 1400 2863 
L 1400 2747 
L 1313 2747 
Q 1191 2747 1127 2687 
Q 1063 2628 1063 2528 
Q 1063 2419 1128 2269 
L 1794 688 
L 2463 2328 
Q 2534 2503 2534 2594 
Q 2534 2638 2509 2666 
Q 2475 2713 2422 2730 
Q 2369 2747 2206 2747 
L 2206 2863 
L 3141 2863 
L 3141 2747 
Q 2978 2734 2916 2681 
Q 2806 2588 2719 2369 
L 1703 -88 
L 1575 -88 
L 553 2328 
Q 484 2497 421 2570 
Q 359 2644 263 2694 
Q 209 2722 53 2747 
L 53 2863 
z
" transform="scale(0.015625)"/>
      <path id="TimesNewRomanPSMT-48" d="M 681 1784 
Q 678 1147 991 784 
Q 1303 422 1725 422 
Q 2006 422 2214 576 
Q 2422 731 2563 1106 
L 2659 1044 
Q 2594 616 2278 264 
Q 1963 -88 1488 -88 
Q 972 -88 605 314 
Q 238 716 238 1394 
Q 238 2128 614 2539 
Q 991 2950 1559 2950 
Q 2041 2950 2350 2633 
Q 2659 2316 2659 1784 
L 681 1784 
z
M 681 1966 
L 2006 1966 
Q 1991 2241 1941 2353 
Q 1863 2528 1708 2628 
Q 1553 2728 1384 2728 
Q 1125 2728 920 2526 
Q 716 2325 681 1966 
z
" transform="scale(0.015625)"/>
     </defs>
     <use xlink:href="#TimesNewRomanPSMT-37"/>
     <use xlink:href="#TimesNewRomanPSMT-55" transform="translate(57.5625 0)"/>
     <use xlink:href="#TimesNewRomanPSMT-44" transform="translate(90.859375 0)"/>
     <use xlink:href="#TimesNewRomanPSMT-59" transform="translate(135.25 0)"/>
     <use xlink:href="#TimesNewRomanPSMT-48" transform="translate(185.25 0)"/>
     <use xlink:href="#TimesNewRomanPSMT-4f" transform="translate(229.640625 0)"/>
     <use xlink:href="#TimesNewRomanPSMT-3" transform="translate(257.421875 0)"/>
     <use xlink:href="#TimesNewRomanPSMT-57" transform="translate(282.421875 0)"/>
     <use xlink:href="#TimesNewRomanPSMT-4c" transform="translate(310.203125 0)"/>
     <use xlink:href="#TimesNewRomanPSMT-50" transform="translate(337.984375 0)"/>
     <use xlink:href="#TimesNewRomanPSMT-48" transform="translate(415.765625 0)"/>
    </g>
   </g>
   <g id="text_5">
    <!-- Deployment -->
    <g style="fill: #ffffff" transform="translate(368.689414 31.681941) scale(0.12 -0.12)">
     <defs>
      <path id="TimesNewRomanPS-BoldMT-27" d="M 84 0 
L 84 116 
L 225 116 
Q 409 116 507 173 
Q 606 231 653 331 
Q 681 397 681 725 
L 681 3513 
Q 681 3838 647 3919 
Q 613 4000 508 4061 
Q 403 4122 225 4122 
L 84 4122 
L 84 4238 
L 1981 4238 
Q 2741 4238 3203 4031 
Q 3769 3778 4061 3265 
Q 4353 2753 4353 2106 
Q 4353 1659 4209 1282 
Q 4066 906 3837 661 
Q 3609 416 3311 267 
Q 3013 119 2581 38 
Q 2391 0 1981 0 
L 84 0 
z
M 1700 3997 
L 1700 691 
Q 1700 428 1725 368 
Q 1750 309 1809 278 
Q 1894 231 2053 231 
Q 2575 231 2850 588 
Q 3225 1069 3225 2081 
Q 3225 2897 2969 3384 
Q 2766 3766 2447 3903 
Q 2222 4000 1700 3997 
z
" transform="scale(0.015625)"/>
      <path id="TimesNewRomanPS-BoldMT-4f" d="M 1359 4238 
L 1359 606 
Q 1359 297 1431 211 
Q 1503 125 1713 113 
L 1713 0 
L 134 0 
L 134 113 
Q 328 119 422 225 
Q 484 297 484 606 
L 484 3631 
Q 484 3938 412 4023 
Q 341 4109 134 4122 
L 134 4238 
L 1359 4238 
z
" transform="scale(0.015625)"/>
      <path id="TimesNewRomanPS-BoldMT-5c" d="M 1556 -119 
L 613 2047 
Q 400 2538 298 2650 
Q 197 2763 53 2806 
L 53 2922 
L 1606 2922 
L 1606 2806 
Q 1453 2800 1390 2747 
Q 1328 2694 1328 2619 
Q 1328 2500 1484 2150 
L 1984 1006 
L 2325 1891 
Q 2509 2363 2509 2547 
Q 2509 2663 2432 2731 
Q 2356 2800 2163 2806 
L 2163 2922 
L 3141 2922 
L 3141 2806 
Q 2997 2791 2906 2695 
Q 2816 2600 2603 2047 
L 1769 -119 
Q 1453 -931 1300 -1119 
Q 1084 -1381 759 -1381 
Q 500 -1381 339 -1232 
Q 178 -1084 178 -875 
Q 178 -694 289 -575 
Q 400 -456 563 -456 
Q 719 -456 814 -556 
Q 909 -656 913 -866 
Q 916 -984 941 -1019 
Q 966 -1053 1013 -1053 
Q 1088 -1053 1172 -963 
Q 1297 -831 1466 -363 
L 1556 -119 
z
" transform="scale(0.015625)"/>
      <path id="TimesNewRomanPS-BoldMT-50" d="M 1428 2922 
L 1428 2538 
Q 1669 2800 1873 2904 
Q 2078 3009 2322 3009 
Q 2603 3009 2793 2878 
Q 2984 2747 3088 2478 
Q 3338 2759 3567 2884 
Q 3797 3009 4047 3009 
Q 4350 3009 4529 2870 
Q 4709 2731 4779 2517 
Q 4850 2303 4850 1834 
L 4850 638 
Q 4850 300 4911 219 
Q 4972 138 5166 113 
L 5166 0 
L 3656 0 
L 3656 113 
Q 3834 128 3919 250 
Q 3975 334 3975 638 
L 3975 1894 
Q 3975 2284 3944 2390 
Q 3913 2497 3845 2548 
Q 3778 2600 3688 2600 
Q 3553 2600 3415 2501 
Q 3278 2403 3138 2206 
L 3138 638 
Q 3138 322 3191 241 
Q 3263 125 3466 113 
L 3466 0 
L 1953 0 
L 1953 113 
Q 2075 119 2145 173 
Q 2216 228 2239 304 
Q 2263 381 2263 638 
L 2263 1894 
Q 2263 2291 2231 2391 
Q 2200 2491 2126 2547 
Q 2053 2603 1969 2603 
Q 1844 2603 1741 2538 
Q 1594 2441 1428 2206 
L 1428 638 
Q 1428 328 1489 229 
Q 1550 131 1744 113 
L 1744 0 
L 238 0 
L 238 113 
Q 422 131 500 231 
Q 553 300 553 638 
L 553 2288 
Q 553 2619 492 2700 
Q 431 2781 238 2806 
L 238 2922 
L 1428 2922 
z
" transform="scale(0.015625)"/>
     </defs>
     <use xlink:href="#TimesNewRomanPS-BoldMT-27"/>
     <use xlink:href="#TimesNewRomanPS-BoldMT-48" transform="translate(72.21875 0)"/>
     <use xlink:href="#TimesNewRomanPS-BoldMT-53" transform="translate(116.609375 0)"/>
     <use xlink:href="#TimesNewRomanPS-BoldMT-4f" transform="translate(172.21875 0)"/>
     <use xlink:href="#TimesNewRomanPS-BoldMT-52" transform="translate(200 0)"/>
     <use xlink:href="#TimesNewRomanPS-BoldMT-5c" transform="translate(250 0)"/>
     <use xlink:href="#TimesNewRomanPS-BoldMT-50" transform="translate(300 0)"/>
     <use xlink:href="#TimesNewRomanPS-BoldMT-48" transform="translate(383.296875 0)"/>
     <use xlink:href="#TimesNewRomanPS-BoldMT-51" transform="translate(427.6875 0)"/>
     <use xlink:href="#TimesNewRomanPS-BoldMT-57" transform="translate(483.296875 0)"/>
    </g>
   </g>
   <g id="text_6">
    <!-- People + drones -->
    <g style="fill: #ffffff" transform="translate(360.974727 44.824084) scale(0.12 -0.12)">
     <defs>
      <path id="TimesNewRomanPSMT-33" d="M 1313 1984 
L 1313 750 
Q 1313 350 1400 253 
Q 1519 116 1759 116 
L 1922 116 
L 1922 0 
L 106 0 
L 106 116 
L 266 116 
Q 534 116 650 291 
Q 713 388 713 750 
L 713 3488 
Q 713 3888 628 3984 
Q 506 4122 266 4122 
L 106 4122 
L 106 4238 
L 1659 4238 
Q 2228 4238 2556 4120 
Q 2884 4003 3109 3725 
Q 3334 3447 3334 3066 
Q 3334 2547 2992 2222 
Q 2650 1897 2025 1897 
Q 1872 1897 1694 1919 
Q 1516 1941 1313 1984 
z
M 1313 2163 
Q 1478 2131 1606 2115 
Q 1734 2100 1825 2100 
Q 2150 2100 2386 2351 
Q 2622 2603 2622 3003 
Q 2622 3278 2509 3514 
Q 2397 3750 2190 3867 
Q 1984 3984 1722 3984 
Q 1563 3984 1313 3925 
L 1313 2163 
z
" transform="scale(0.015625)"/>
      <path id="TimesNewRomanPSMT-52" d="M 1600 2947 
Q 2250 2947 2644 2453 
Q 2978 2031 2978 1484 
Q 2978 1100 2793 706 
Q 2609 313 2286 112 
Q 1963 -88 1566 -88 
Q 919 -88 538 428 
Q 216 863 216 1403 
Q 216 1797 411 2186 
Q 606 2575 925 2761 
Q 1244 2947 1600 2947 
z
M 1503 2744 
Q 1338 2744 1170 2645 
Q 1003 2547 900 2300 
Q 797 2053 797 1666 
Q 797 1041 1045 587 
Q 1294 134 1700 134 
Q 2003 134 2200 384 
Q 2397 634 2397 1244 
Q 2397 2006 2069 2444 
Q 1847 2744 1503 2744 
z
" transform="scale(0.015625)"/>
      <path id="TimesNewRomanPSMT-53" d="M -6 2578 
L 875 2934 
L 994 2934 
L 994 2266 
Q 1216 2644 1439 2795 
Q 1663 2947 1909 2947 
Q 2341 2947 2628 2609 
Q 2981 2197 2981 1534 
Q 2981 794 2556 309 
Q 2206 -88 1675 -88 
Q 1444 -88 1275 -22 
Q 1150 25 994 166 
L 994 -706 
Q 994 -1000 1030 -1079 
Q 1066 -1159 1155 -1206 
Q 1244 -1253 1478 -1253 
L 1478 -1369 
L -22 -1369 
L -22 -1253 
L 56 -1253 
Q 228 -1256 350 -1188 
Q 409 -1153 442 -1076 
Q 475 -1000 475 -688 
L 475 2019 
Q 475 2297 450 2372 
Q 425 2447 370 2484 
Q 316 2522 222 2522 
Q 147 2522 31 2478 
L -6 2578 
z
M 994 2081 
L 994 1013 
Q 994 666 1022 556 
Q 1066 375 1236 237 
Q 1406 100 1666 100 
Q 1978 100 2172 344 
Q 2425 663 2425 1241 
Q 2425 1897 2138 2250 
Q 1938 2494 1663 2494 
Q 1513 2494 1366 2419 
Q 1253 2363 994 2081 
z
" transform="scale(0.015625)"/>
      <path id="TimesNewRomanPSMT-47" d="M 2222 322 
Q 2013 103 1813 7 
Q 1613 -88 1381 -88 
Q 913 -88 563 304 
Q 213 697 213 1313 
Q 213 1928 600 2439 
Q 988 2950 1597 2950 
Q 1975 2950 2222 2709 
L 2222 3238 
Q 2222 3728 2198 3840 
Q 2175 3953 2125 3993 
Q 2075 4034 2000 4034 
Q 1919 4034 1784 3984 
L 1744 4094 
L 2597 4444 
L 2738 4444 
L 2738 1134 
Q 2738 631 2761 520 
Q 2784 409 2836 365 
Q 2888 322 2956 322 
Q 3041 322 3181 375 
L 3216 266 
L 2366 -88 
L 2222 -88 
L 2222 322 
z
M 2222 541 
L 2222 2016 
Q 2203 2228 2109 2403 
Q 2016 2578 1861 2667 
Q 1706 2756 1559 2756 
Q 1284 2756 1069 2509 
Q 784 2184 784 1559 
Q 784 928 1059 592 
Q 1334 256 1672 256 
Q 1956 256 2222 541 
z
" transform="scale(0.015625)"/>
     </defs>
     <use xlink:href="#TimesNewRomanPSMT-33"/>
     <use xlink:href="#TimesNewRomanPSMT-48" transform="translate(55.609375 0)"/>
     <use xlink:href="#TimesNewRomanPSMT-52" transform="translate(100 0)"/>
     <use xlink:href="#TimesNewRomanPSMT-53" transform="translate(150 0)"/>
     <use xlink:href="#TimesNewRomanPSMT-4f" transform="translate(200 0)"/>
     <use xlink:href="#TimesNewRomanPSMT-48" transform="translate(227.78125 0)"/>
     <use xlink:href="#TimesNewRomanPSMT-3" transform="translate(272.171875 0)"/>
     <use xlink:href="#TimesNewRomanPSMT-e" transform="translate(297.171875 0)"/>
     <use xlink:href="#TimesNewRomanPSMT-3" transform="translate(353.5625 0)"/>
     <use xlink:href="#TimesNewRomanPSMT-47" transform="translate(378.5625 0)"/>
     <use xlink:href="#TimesNewRomanPSMT-55" transform="translate(428.5625 0)"/>
     <use xlink:href="#TimesNewRomanPSMT-52" transform="translate(461.859375 0)"/>
     <use xlink:href="#TimesNewRomanPSMT-51" transform="translate(511.859375 0)"/>
     <use xlink:href="#TimesNewRomanPSMT-48" transform="translate(561.859375 0)"/>
     <use xlink:href="#TimesNewRomanPSMT-56" transform="translate(606.25 0)"/>
    </g>
   </g>
   <g id="text_7">
    <!-- Seasonal tasks -->
    <g style="fill: #263746" transform="translate(36.857037 91.776429) scale(0.12 -0.12)">
     <defs>
      <path id="TimesNewRomanPS-BoldMT-36" d="M 3006 4334 
L 3041 2922 
L 2913 2922 
Q 2822 3453 2467 3776 
Q 2113 4100 1700 4100 
Q 1381 4100 1195 3929 
Q 1009 3759 1009 3538 
Q 1009 3397 1075 3288 
Q 1166 3141 1366 2997 
Q 1513 2894 2044 2631 
Q 2788 2266 3047 1941 
Q 3303 1616 3303 1197 
Q 3303 666 2889 283 
Q 2475 -100 1838 -100 
Q 1638 -100 1459 -59 
Q 1281 -19 1013 94 
Q 863 156 766 156 
Q 684 156 593 93 
Q 503 31 447 -97 
L 331 -97 
L 331 1503 
L 447 1503 
Q 584 828 976 473 
Q 1369 119 1822 119 
Q 2172 119 2380 309 
Q 2588 500 2588 753 
Q 2588 903 2508 1043 
Q 2428 1184 2265 1311 
Q 2103 1438 1691 1641 
Q 1113 1925 859 2125 
Q 606 2325 470 2572 
Q 334 2819 334 3116 
Q 334 3622 706 3978 
Q 1078 4334 1644 4334 
Q 1850 4334 2044 4284 
Q 2191 4247 2402 4145 
Q 2613 4044 2697 4044 
Q 2778 4044 2825 4094 
Q 2872 4144 2913 4334 
L 3006 4334 
z
" transform="scale(0.015625)"/>
      <path id="TimesNewRomanPS-BoldMT-44" d="M 1828 431 
Q 1294 -41 869 -41 
Q 619 -41 453 123 
Q 288 288 288 534 
Q 288 869 575 1136 
Q 863 1403 1828 1847 
L 1828 2141 
Q 1828 2472 1792 2558 
Q 1756 2644 1656 2708 
Q 1556 2772 1431 2772 
Q 1228 2772 1097 2681 
Q 1016 2625 1016 2550 
Q 1016 2484 1103 2388 
Q 1222 2253 1222 2128 
Q 1222 1975 1108 1867 
Q 994 1759 809 1759 
Q 613 1759 480 1878 
Q 347 1997 347 2156 
Q 347 2381 525 2586 
Q 703 2791 1022 2900 
Q 1341 3009 1684 3009 
Q 2100 3009 2342 2832 
Q 2584 2656 2656 2450 
Q 2700 2319 2700 1847 
L 2700 713 
Q 2700 513 2715 461 
Q 2731 409 2762 384 
Q 2794 359 2834 359 
Q 2916 359 3000 475 
L 3094 400 
Q 2938 169 2770 64 
Q 2603 -41 2391 -41 
Q 2141 -41 2000 76 
Q 1859 194 1828 431 
z
M 1828 659 
L 1828 1638 
Q 1450 1416 1266 1163 
Q 1144 994 1144 822 
Q 1144 678 1247 569 
Q 1325 484 1466 484 
Q 1622 484 1828 659 
z
" transform="scale(0.015625)"/>
      <path id="TimesNewRomanPS-BoldMT-4e" d="M 1403 4238 
L 1403 1450 
L 2081 2116 
Q 2291 2319 2342 2409 
Q 2394 2500 2394 2584 
Q 2394 2669 2325 2725 
Q 2256 2781 2056 2806 
L 2056 2922 
L 3366 2922 
L 3366 2806 
Q 3178 2797 3037 2717 
Q 2897 2638 2488 2238 
L 2169 1925 
L 2856 919 
Q 3272 306 3350 231 
Q 3456 125 3619 113 
L 3619 0 
L 2109 0 
L 2109 113 
Q 2209 113 2254 150 
Q 2300 188 2300 231 
Q 2300 303 2169 497 
L 1591 1344 
L 1403 1159 
L 1403 634 
Q 1403 300 1465 217 
Q 1528 134 1722 113 
L 1722 0 
L 213 0 
L 213 113 
Q 397 131 475 231 
Q 528 300 528 634 
L 528 3603 
Q 528 3934 467 4015 
Q 406 4097 213 4122 
L 213 4238 
L 1403 4238 
z
" transform="scale(0.015625)"/>
     </defs>
     <use xlink:href="#TimesNewRomanPS-BoldMT-36"/>
     <use xlink:href="#TimesNewRomanPS-BoldMT-48" transform="translate(55.609375 0)"/>
     <use xlink:href="#TimesNewRomanPS-BoldMT-44" transform="translate(100 0)"/>
     <use xlink:href="#TimesNewRomanPS-BoldMT-56" transform="translate(150 0)"/>
     <use xlink:href="#TimesNewRomanPS-BoldMT-52" transform="translate(188.921875 0)"/>
     <use xlink:href="#TimesNewRomanPS-BoldMT-51" transform="translate(238.921875 0)"/>
     <use xlink:href="#TimesNewRomanPS-BoldMT-44" transform="translate(294.53125 0)"/>
     <use xlink:href="#TimesNewRomanPS-BoldMT-4f" transform="translate(344.53125 0)"/>
     <use xlink:href="#TimesNewRomanPS-BoldMT-3" transform="translate(372.3125 0)"/>
     <use xlink:href="#TimesNewRomanPS-BoldMT-57" transform="translate(397.3125 0)"/>
     <use xlink:href="#TimesNewRomanPS-BoldMT-44" transform="translate(430.609375 0)"/>
     <use xlink:href="#TimesNewRomanPS-BoldMT-56" transform="translate(480.609375 0)"/>
     <use xlink:href="#TimesNewRomanPS-BoldMT-4e" transform="translate(519.53125 0)"/>
     <use xlink:href="#TimesNewRomanPS-BoldMT-56" transform="translate(575.140625 0)"/>
    </g>
   </g>
   <g id="text_8">
    <!-- Fire + water tasks -->
    <g style="fill: #263746" transform="translate(30.827037 106.61936) scale(0.12 -0.12)">
     <defs>
      <path id="TimesNewRomanPSMT-29" d="M 1309 4006 
L 1309 2341 
L 2081 2341 
Q 2347 2341 2470 2458 
Q 2594 2575 2634 2922 
L 2750 2922 
L 2750 1488 
L 2634 1488 
Q 2631 1734 2570 1850 
Q 2509 1966 2401 2023 
Q 2294 2081 2081 2081 
L 1309 2081 
L 1309 750 
Q 1309 428 1350 325 
Q 1381 247 1481 191 
Q 1619 116 1769 116 
L 1922 116 
L 1922 0 
L 103 0 
L 103 116 
L 253 116 
Q 516 116 634 269 
Q 709 369 709 750 
L 709 3488 
Q 709 3809 669 3913 
Q 638 3991 541 4047 
Q 406 4122 253 4122 
L 103 4122 
L 103 4238 
L 3256 4238 
L 3297 3306 
L 3188 3306 
Q 3106 3603 2998 3742 
Q 2891 3881 2733 3943 
Q 2575 4006 2244 4006 
L 1309 4006 
z
" transform="scale(0.015625)"/>
      <path id="TimesNewRomanPSMT-5a" d="M 41 2863 
L 1241 2863 
L 1241 2747 
Q 1075 2734 1023 2687 
Q 972 2641 972 2553 
Q 972 2456 1025 2319 
L 1638 672 
L 2253 2013 
L 2091 2434 
Q 2016 2622 1894 2694 
Q 1825 2738 1638 2747 
L 1638 2863 
L 3000 2863 
L 3000 2747 
Q 2775 2738 2681 2666 
Q 2619 2616 2619 2506 
Q 2619 2444 2644 2378 
L 3294 734 
L 3897 2319 
Q 3959 2488 3959 2588 
Q 3959 2647 3898 2694 
Q 3838 2741 3659 2747 
L 3659 2863 
L 4563 2863 
L 4563 2747 
Q 4291 2706 4163 2378 
L 3206 -88 
L 3078 -88 
L 2363 1741 
L 1528 -88 
L 1413 -88 
L 494 2319 
Q 403 2547 315 2626 
Q 228 2706 41 2747 
L 41 2863 
z
" transform="scale(0.015625)"/>
      <path id="TimesNewRomanPSMT-4e" d="M 1047 4444 
L 1047 1597 
L 1775 2259 
Q 2006 2472 2044 2528 
Q 2069 2566 2069 2603 
Q 2069 2666 2017 2711 
Q 1966 2756 1847 2763 
L 1847 2863 
L 3091 2863 
L 3091 2763 
Q 2834 2756 2664 2684 
Q 2494 2613 2291 2428 
L 1556 1750 
L 2291 822 
Q 2597 438 2703 334 
Q 2853 188 2966 144 
Q 3044 113 3238 113 
L 3238 0 
L 1847 0 
L 1847 113 
Q 1966 116 2008 148 
Q 2050 181 2050 241 
Q 2050 313 1925 472 
L 1047 1594 
L 1047 644 
Q 1047 366 1086 278 
Q 1125 191 1197 153 
Q 1269 116 1509 113 
L 1509 0 
L 53 0 
L 53 113 
Q 272 113 381 166 
Q 447 200 481 272 
Q 528 375 528 628 
L 528 3234 
Q 528 3731 506 3842 
Q 484 3953 434 3995 
Q 384 4038 303 4038 
Q 238 4038 106 3984 
L 53 4094 
L 903 4444 
L 1047 4444 
z
" transform="scale(0.015625)"/>
     </defs>
     <use xlink:href="#TimesNewRomanPSMT-29"/>
     <use xlink:href="#TimesNewRomanPSMT-4c" transform="translate(55.609375 0)"/>
     <use xlink:href="#TimesNewRomanPSMT-55" transform="translate(83.390625 0)"/>
     <use xlink:href="#TimesNewRomanPSMT-48" transform="translate(116.6875 0)"/>
     <use xlink:href="#TimesNewRomanPSMT-3" transform="translate(161.078125 0)"/>
     <use xlink:href="#TimesNewRomanPSMT-e" transform="translate(186.078125 0)"/>
     <use xlink:href="#TimesNewRomanPSMT-3" transform="translate(242.46875 0)"/>
     <use xlink:href="#TimesNewRomanPSMT-5a" transform="translate(267.46875 0)"/>
     <use xlink:href="#TimesNewRomanPSMT-44" transform="translate(339.6875 0)"/>
     <use xlink:href="#TimesNewRomanPSMT-57" transform="translate(384.078125 0)"/>
     <use xlink:href="#TimesNewRomanPSMT-48" transform="translate(411.859375 0)"/>
     <use xlink:href="#TimesNewRomanPSMT-55" transform="translate(456.25 0)"/>
     <use xlink:href="#TimesNewRomanPSMT-3" transform="translate(489.546875 0)"/>
     <use xlink:href="#TimesNewRomanPSMT-57" transform="translate(514.546875 0)"/>
     <use xlink:href="#TimesNewRomanPSMT-44" transform="translate(542.328125 0)"/>
     <use xlink:href="#TimesNewRomanPSMT-56" transform="translate(586.71875 0)"/>
     <use xlink:href="#TimesNewRomanPSMT-4e" transform="translate(625.640625 0)"/>
     <use xlink:href="#TimesNewRomanPSMT-56" transform="translate(675.640625 0)"/>
    </g>
   </g>
   <g id="text_9">
    <!-- Inspection target -->
    <g style="fill: #263746" transform="translate(191.781216 91.779827) scale(0.12 -0.12)">
     <defs>
      <path id="TimesNewRomanPS-BoldMT-2c" d="M 2344 116 
L 2344 0 
L 128 0 
L 128 116 
L 269 116 
Q 453 116 566 181 
Q 647 225 691 331 
Q 725 406 725 725 
L 725 3513 
Q 725 3838 690 3919 
Q 656 4000 551 4061 
Q 447 4122 269 4122 
L 128 4122 
L 128 4238 
L 2344 4238 
L 2344 4122 
L 2203 4122 
Q 2019 4122 1906 4056 
Q 1825 4013 1778 3906 
Q 1744 3831 1744 3513 
L 1744 725 
Q 1744 400 1780 319 
Q 1816 238 1920 177 
Q 2025 116 2203 116 
L 2344 116 
z
" transform="scale(0.015625)"/>
      <path id="TimesNewRomanPS-BoldMT-46" d="M 2600 753 
L 2697 678 
Q 2491 291 2183 101 
Q 1875 -88 1528 -88 
Q 944 -88 594 353 
Q 244 794 244 1413 
Q 244 2009 563 2463 
Q 947 3009 1622 3009 
Q 2075 3009 2342 2781 
Q 2609 2553 2609 2272 
Q 2609 2094 2501 1987 
Q 2394 1881 2219 1881 
Q 2034 1881 1914 2003 
Q 1794 2125 1766 2438 
Q 1747 2634 1675 2713 
Q 1603 2791 1506 2791 
Q 1356 2791 1250 2631 
Q 1088 2391 1088 1894 
Q 1088 1481 1219 1104 
Q 1350 728 1578 544 
Q 1750 409 1984 409 
Q 2138 409 2275 481 
Q 2413 553 2600 753 
z
" transform="scale(0.015625)"/>
      <path id="TimesNewRomanPS-BoldMT-4a" d="M 2091 2888 
L 3075 2888 
L 3075 2544 
L 2516 2544 
Q 2669 2391 2728 2266 
Q 2803 2097 2803 1913 
Q 2803 1600 2629 1370 
Q 2456 1141 2157 1011 
Q 1859 881 1628 881 
Q 1609 881 1253 897 
Q 1113 897 1017 805 
Q 922 713 922 584 
Q 922 472 1008 400 
Q 1094 328 1288 328 
L 1828 334 
Q 2484 334 2731 191 
Q 3084 -9 3084 -425 
Q 3084 -691 2921 -908 
Q 2759 -1125 2494 -1228 
Q 2091 -1381 1566 -1381 
Q 1172 -1381 847 -1304 
Q 522 -1228 381 -1092 
Q 241 -956 241 -806 
Q 241 -663 348 -548 
Q 456 -434 750 -356 
Q 344 -156 344 200 
Q 344 416 509 619 
Q 675 822 1034 972 
Q 616 1125 428 1375 
Q 241 1625 241 1953 
Q 241 2381 591 2695 
Q 941 3009 1491 3009 
Q 1781 3009 2091 2888 
z
M 1550 2816 
Q 1369 2816 1244 2633 
Q 1119 2450 1119 1875 
Q 1119 1409 1242 1236 
Q 1366 1063 1534 1063 
Q 1722 1063 1847 1234 
Q 1972 1406 1972 1903 
Q 1972 2463 1831 2666 
Q 1731 2816 1550 2816 
z
M 1366 -431 
Q 1047 -431 944 -484 
Q 766 -581 766 -747 
Q 766 -906 950 -1036 
Q 1134 -1166 1644 -1166 
Q 2078 -1166 2326 -1050 
Q 2575 -934 2575 -725 
Q 2575 -647 2528 -594 
Q 2444 -500 2273 -465 
Q 2103 -431 1366 -431 
z
" transform="scale(0.015625)"/>
     </defs>
     <use xlink:href="#TimesNewRomanPS-BoldMT-2c"/>
     <use xlink:href="#TimesNewRomanPS-BoldMT-51" transform="translate(38.921875 0)"/>
     <use xlink:href="#TimesNewRomanPS-BoldMT-56" transform="translate(94.53125 0)"/>
     <use xlink:href="#TimesNewRomanPS-BoldMT-53" transform="translate(133.453125 0)"/>
     <use xlink:href="#TimesNewRomanPS-BoldMT-48" transform="translate(189.0625 0)"/>
     <use xlink:href="#TimesNewRomanPS-BoldMT-46" transform="translate(233.453125 0)"/>
     <use xlink:href="#TimesNewRomanPS-BoldMT-57" transform="translate(277.84375 0)"/>
     <use xlink:href="#TimesNewRomanPS-BoldMT-4c" transform="translate(311.140625 0)"/>
     <use xlink:href="#TimesNewRomanPS-BoldMT-52" transform="translate(338.921875 0)"/>
     <use xlink:href="#TimesNewRomanPS-BoldMT-51" transform="translate(388.921875 0)"/>
     <use xlink:href="#TimesNewRomanPS-BoldMT-3" transform="translate(444.53125 0)"/>
     <use xlink:href="#TimesNewRomanPS-BoldMT-57" transform="translate(469.53125 0)"/>
     <use xlink:href="#TimesNewRomanPS-BoldMT-44" transform="translate(502.828125 0)"/>
     <use xlink:href="#TimesNewRomanPS-BoldMT-55" transform="translate(552.828125 0)"/>
     <use xlink:href="#TimesNewRomanPS-BoldMT-4a" transform="translate(597.21875 0)"/>
     <use xlink:href="#TimesNewRomanPS-BoldMT-48" transform="translate(647.21875 0)"/>
     <use xlink:href="#TimesNewRomanPS-BoldMT-57" transform="translate(691.609375 0)"/>
    </g>
   </g>
   <g id="text_10">
    <!-- 57.26% -->
    <g style="fill: #263746" transform="translate(216.777778 106.613266) scale(0.12 -0.12)">
     <defs>
      <path id="TimesNewRomanPSMT-18" d="M 2778 4238 
L 2534 3706 
L 1259 3706 
L 981 3138 
Q 1809 3016 2294 2522 
Q 2709 2097 2709 1522 
Q 2709 1188 2573 903 
Q 2438 619 2231 419 
Q 2025 219 1772 97 
Q 1413 -75 1034 -75 
Q 653 -75 479 54 
Q 306 184 306 341 
Q 306 428 378 495 
Q 450 563 559 563 
Q 641 563 702 538 
Q 763 513 909 409 
Q 1144 247 1384 247 
Q 1750 247 2026 523 
Q 2303 800 2303 1197 
Q 2303 1581 2056 1914 
Q 1809 2247 1375 2428 
Q 1034 2569 447 2591 
L 1259 4238 
L 2778 4238 
z
" transform="scale(0.015625)"/>
      <path id="TimesNewRomanPSMT-1a" d="M 644 4238 
L 2916 4238 
L 2916 4119 
L 1503 -88 
L 1153 -88 
L 2419 3728 
L 1253 3728 
Q 900 3728 750 3644 
Q 488 3500 328 3200 
L 238 3234 
L 644 4238 
z
" transform="scale(0.015625)"/>
      <path id="TimesNewRomanPSMT-11" d="M 800 606 
Q 947 606 1047 504 
Q 1147 403 1147 259 
Q 1147 116 1045 14 
Q 944 -88 800 -88 
Q 656 -88 554 14 
Q 453 116 453 259 
Q 453 406 554 506 
Q 656 606 800 606 
z
" transform="scale(0.015625)"/>
      <path id="TimesNewRomanPSMT-15" d="M 2934 816 
L 2638 0 
L 138 0 
L 138 116 
Q 1241 1122 1691 1759 
Q 2141 2397 2141 2925 
Q 2141 3328 1894 3587 
Q 1647 3847 1303 3847 
Q 991 3847 742 3664 
Q 494 3481 375 3128 
L 259 3128 
Q 338 3706 661 4015 
Q 984 4325 1469 4325 
Q 1984 4325 2329 3994 
Q 2675 3663 2675 3213 
Q 2675 2891 2525 2569 
Q 2294 2063 1775 1497 
Q 997 647 803 472 
L 1909 472 
Q 2247 472 2383 497 
Q 2519 522 2628 598 
Q 2738 675 2819 816 
L 2934 816 
z
" transform="scale(0.015625)"/>
      <path id="TimesNewRomanPSMT-19" d="M 2869 4325 
L 2869 4209 
Q 2456 4169 2195 4045 
Q 1934 3922 1679 3669 
Q 1425 3416 1258 3105 
Q 1091 2794 978 2366 
Q 1428 2675 1881 2675 
Q 2316 2675 2634 2325 
Q 2953 1975 2953 1425 
Q 2953 894 2631 456 
Q 2244 -75 1606 -75 
Q 1172 -75 869 213 
Q 275 772 275 1663 
Q 275 2231 503 2743 
Q 731 3256 1154 3653 
Q 1578 4050 1965 4187 
Q 2353 4325 2688 4325 
L 2869 4325 
z
M 925 2138 
Q 869 1716 869 1456 
Q 869 1156 980 804 
Q 1091 453 1309 247 
Q 1469 100 1697 100 
Q 1969 100 2183 356 
Q 2397 613 2397 1088 
Q 2397 1622 2184 2012 
Q 1972 2403 1581 2403 
Q 1463 2403 1327 2353 
Q 1191 2303 925 2138 
z
" transform="scale(0.015625)"/>
      <path id="TimesNewRomanPSMT-8" d="M 4350 4334 
L 1263 -175 
L 984 -175 
L 4072 4334 
L 4350 4334 
z
M 1138 4334 
Q 1559 4334 1792 3984 
Q 2025 3634 2025 3181 
Q 2025 2638 1762 2341 
Q 1500 2044 1131 2044 
Q 884 2044 678 2180 
Q 472 2316 348 2584 
Q 225 2853 225 3181 
Q 225 3509 350 3786 
Q 475 4063 692 4198 
Q 909 4334 1138 4334 
z
M 1128 4159 
Q 969 4159 845 3971 
Q 722 3784 722 3184 
Q 722 2750 791 2522 
Q 844 2350 956 2256 
Q 1022 2200 1119 2200 
Q 1269 2200 1375 2363 
Q 1531 2603 1531 3166 
Q 1531 3759 1378 4000 
Q 1278 4159 1128 4159 
z
M 4206 2103 
Q 4428 2103 4648 1962 
Q 4869 1822 4989 1553 
Q 5109 1284 5109 963 
Q 5109 409 4843 117 
Q 4578 -175 4216 -175 
Q 3988 -175 3773 -34 
Q 3559 106 3436 367 
Q 3313 628 3313 963 
Q 3313 1291 3436 1562 
Q 3559 1834 3773 1968 
Q 3988 2103 4206 2103 
z
M 4209 1938 
Q 4059 1938 3950 1769 
Q 3809 1550 3809 941 
Q 3809 381 3953 159 
Q 4059 0 4209 0 
Q 4353 0 4466 172 
Q 4616 400 4616 956 
Q 4616 1544 4466 1778 
Q 4363 1938 4209 1938 
z
" transform="scale(0.015625)"/>
     </defs>
     <use xlink:href="#TimesNewRomanPSMT-18"/>
     <use xlink:href="#TimesNewRomanPSMT-1a" transform="translate(50 0)"/>
     <use xlink:href="#TimesNewRomanPSMT-11" transform="translate(100 0)"/>
     <use xlink:href="#TimesNewRomanPSMT-15" transform="translate(125 0)"/>
     <use xlink:href="#TimesNewRomanPSMT-19" transform="translate(175 0)"/>
     <use xlink:href="#TimesNewRomanPSMT-8" transform="translate(225 0)"/>
    </g>
   </g>
   <g id="text_11">
    <!-- Monthly staff -->
    <g style="fill: #263746" transform="translate(364.855039 91.776429) scale(0.12 -0.12)">
     <defs>
      <path id="TimesNewRomanPS-BoldMT-30" d="M 3050 1444 
L 4200 4238 
L 5925 4238 
L 5925 4122 
L 5788 4122 
Q 5600 4122 5488 4056 
Q 5409 4013 5363 3909 
Q 5328 3834 5328 3519 
L 5328 725 
Q 5328 400 5362 319 
Q 5397 238 5503 177 
Q 5609 116 5788 116 
L 5925 116 
L 5925 0 
L 3713 0 
L 3713 116 
L 3850 116 
Q 4038 116 4150 181 
Q 4228 225 4275 331 
Q 4309 406 4309 725 
L 4309 3866 
L 2684 0 
L 2609 0 
L 959 3838 
L 959 853 
Q 959 541 975 469 
Q 1016 313 1152 214 
Q 1288 116 1578 116 
L 1578 0 
L 128 0 
L 128 116 
L 172 116 
Q 313 113 434 161 
Q 556 209 618 290 
Q 681 372 716 519 
Q 722 553 722 838 
L 722 3519 
Q 722 3841 687 3920 
Q 653 4000 547 4061 
Q 441 4122 263 4122 
L 128 4122 
L 128 4238 
L 1859 4238 
L 3050 1444 
z
" transform="scale(0.015625)"/>
      <path id="TimesNewRomanPS-BoldMT-4b" d="M 1409 4238 
L 1409 2547 
Q 1650 2800 1850 2904 
Q 2050 3009 2266 3009 
Q 2541 3009 2736 2853 
Q 2931 2697 2995 2486 
Q 3059 2275 3059 1775 
L 3059 634 
Q 3059 300 3121 217 
Q 3184 134 3375 113 
L 3375 0 
L 1894 0 
L 1894 113 
Q 2050 134 2128 238 
Q 2184 319 2184 634 
L 2184 1938 
Q 2184 2300 2156 2392 
Q 2128 2484 2061 2536 
Q 1994 2588 1909 2588 
Q 1784 2588 1665 2502 
Q 1547 2416 1409 2200 
L 1409 634 
Q 1409 322 1456 244 
Q 1516 138 1700 113 
L 1700 0 
L 219 0 
L 219 113 
Q 403 131 481 231 
Q 534 300 534 634 
L 534 3603 
Q 534 3934 473 4015 
Q 413 4097 219 4122 
L 219 4238 
L 1409 4238 
z
" transform="scale(0.015625)"/>
      <path id="TimesNewRomanPS-BoldMT-49" d="M 1497 2616 
L 1497 588 
Q 1497 294 1559 219 
Q 1659 103 1928 113 
L 1928 0 
L 206 0 
L 206 113 
Q 403 116 486 158 
Q 569 200 600 275 
Q 631 350 631 588 
L 631 2616 
L 206 2616 
L 206 2922 
L 631 2922 
L 631 3138 
L 628 3284 
Q 628 3734 958 4034 
Q 1288 4334 1850 4334 
Q 2234 4334 2420 4190 
Q 2606 4047 2606 3872 
Q 2606 3731 2490 3628 
Q 2375 3525 2184 3525 
Q 2022 3525 1926 3609 
Q 1831 3694 1831 3797 
Q 1831 3825 1850 3913 
Q 1863 3966 1863 4013 
Q 1863 4078 1825 4109 
Q 1775 4156 1703 4156 
Q 1613 4156 1552 4081 
Q 1491 4006 1491 3841 
L 1497 3294 
L 1497 2922 
L 1928 2922 
L 1928 2616 
L 1497 2616 
z
" transform="scale(0.015625)"/>
     </defs>
     <use xlink:href="#TimesNewRomanPS-BoldMT-30"/>
     <use xlink:href="#TimesNewRomanPS-BoldMT-52" transform="translate(94.390625 0)"/>
     <use xlink:href="#TimesNewRomanPS-BoldMT-51" transform="translate(144.390625 0)"/>
     <use xlink:href="#TimesNewRomanPS-BoldMT-57" transform="translate(200 0)"/>
     <use xlink:href="#TimesNewRomanPS-BoldMT-4b" transform="translate(233.296875 0)"/>
     <use xlink:href="#TimesNewRomanPS-BoldMT-4f" transform="translate(288.90625 0)"/>
     <use xlink:href="#TimesNewRomanPS-BoldMT-5c" transform="translate(316.6875 0)"/>
     <use xlink:href="#TimesNewRomanPS-BoldMT-3" transform="translate(366.6875 0)"/>
     <use xlink:href="#TimesNewRomanPS-BoldMT-56" transform="translate(391.6875 0)"/>
     <use xlink:href="#TimesNewRomanPS-BoldMT-57" transform="translate(430.609375 0)"/>
     <use xlink:href="#TimesNewRomanPS-BoldMT-44" transform="translate(463.90625 0)"/>
     <use xlink:href="#TimesNewRomanPS-BoldMT-49" transform="translate(513.90625 0)"/>
     <use xlink:href="#TimesNewRomanPS-BoldMT-49" transform="translate(547.203125 0)"/>
    </g>
   </g>
   <g id="text_12">
    <!-- Minimum hours / 120 -->
    <g style="fill: #263746" transform="translate(347.182227 106.61936) scale(0.12 -0.12)">
     <defs>
      <path id="TimesNewRomanPSMT-30" d="M 2619 0 
L 981 3566 
L 981 734 
Q 981 344 1066 247 
Q 1181 116 1431 116 
L 1581 116 
L 1581 0 
L 106 0 
L 106 116 
L 256 116 
Q 525 116 638 278 
Q 706 378 706 734 
L 706 3503 
Q 706 3784 644 3909 
Q 600 4000 483 4061 
Q 366 4122 106 4122 
L 106 4238 
L 1306 4238 
L 2844 922 
L 4356 4238 
L 5556 4238 
L 5556 4122 
L 5409 4122 
Q 5138 4122 5025 3959 
Q 4956 3859 4956 3503 
L 4956 734 
Q 4956 344 5044 247 
Q 5159 116 5409 116 
L 5556 116 
L 5556 0 
L 3756 0 
L 3756 116 
L 3906 116 
Q 4178 116 4288 278 
Q 4356 378 4356 734 
L 4356 3566 
L 2722 0 
L 2619 0 
z
" transform="scale(0.015625)"/>
      <path id="TimesNewRomanPSMT-58" d="M 2709 2863 
L 2709 1128 
Q 2709 631 2732 520 
Q 2756 409 2807 365 
Q 2859 322 2928 322 
Q 3025 322 3147 375 
L 3191 266 
L 2334 -88 
L 2194 -88 
L 2194 519 
Q 1825 119 1631 15 
Q 1438 -88 1222 -88 
Q 981 -88 804 51 
Q 628 191 559 409 
Q 491 628 491 1028 
L 491 2306 
Q 491 2509 447 2587 
Q 403 2666 317 2708 
Q 231 2750 6 2747 
L 6 2863 
L 1009 2863 
L 1009 947 
Q 1009 547 1148 422 
Q 1288 297 1484 297 
Q 1619 297 1789 381 
Q 1959 466 2194 703 
L 2194 2325 
Q 2194 2569 2105 2655 
Q 2016 2741 1734 2747 
L 1734 2863 
L 2709 2863 
z
" transform="scale(0.015625)"/>
      <path id="TimesNewRomanPSMT-12" d="M 1794 4444 
L 259 -88 
L 9 -88 
L 1544 4444 
L 1794 4444 
z
" transform="scale(0.015625)"/>
      <path id="TimesNewRomanPSMT-14" d="M 750 3822 
L 1781 4325 
L 1884 4325 
L 1884 747 
Q 1884 391 1914 303 
Q 1944 216 2037 169 
Q 2131 122 2419 116 
L 2419 0 
L 825 0 
L 825 116 
Q 1125 122 1212 167 
Q 1300 213 1334 289 
Q 1369 366 1369 747 
L 1369 3034 
Q 1369 3497 1338 3628 
Q 1316 3728 1258 3775 
Q 1200 3822 1119 3822 
Q 1003 3822 797 3725 
L 750 3822 
z
" transform="scale(0.015625)"/>
      <path id="TimesNewRomanPSMT-13" d="M 231 2094 
Q 231 2819 450 3342 
Q 669 3866 1031 4122 
Q 1313 4325 1613 4325 
Q 2100 4325 2488 3828 
Q 2972 3213 2972 2159 
Q 2972 1422 2759 906 
Q 2547 391 2217 158 
Q 1888 -75 1581 -75 
Q 975 -75 572 641 
Q 231 1244 231 2094 
z
M 844 2016 
Q 844 1141 1059 588 
Q 1238 122 1591 122 
Q 1759 122 1940 273 
Q 2122 425 2216 781 
Q 2359 1319 2359 2297 
Q 2359 3022 2209 3506 
Q 2097 3866 1919 4016 
Q 1791 4119 1609 4119 
Q 1397 4119 1231 3928 
Q 1006 3669 925 3112 
Q 844 2556 844 2016 
z
" transform="scale(0.015625)"/>
     </defs>
     <use xlink:href="#TimesNewRomanPSMT-30"/>
     <use xlink:href="#TimesNewRomanPSMT-4c" transform="translate(88.921875 0)"/>
     <use xlink:href="#TimesNewRomanPSMT-51" transform="translate(116.703125 0)"/>
     <use xlink:href="#TimesNewRomanPSMT-4c" transform="translate(166.703125 0)"/>
     <use xlink:href="#TimesNewRomanPSMT-50" transform="translate(194.484375 0)"/>
     <use xlink:href="#TimesNewRomanPSMT-58" transform="translate(272.265625 0)"/>
     <use xlink:href="#TimesNewRomanPSMT-50" transform="translate(322.265625 0)"/>
     <use xlink:href="#TimesNewRomanPSMT-3" transform="translate(400.046875 0)"/>
     <use xlink:href="#TimesNewRomanPSMT-4b" transform="translate(425.046875 0)"/>
     <use xlink:href="#TimesNewRomanPSMT-52" transform="translate(475.046875 0)"/>
     <use xlink:href="#TimesNewRomanPSMT-58" transform="translate(525.046875 0)"/>
     <use xlink:href="#TimesNewRomanPSMT-55" transform="translate(575.046875 0)"/>
     <use xlink:href="#TimesNewRomanPSMT-56" transform="translate(608.34375 0)"/>
     <use xlink:href="#TimesNewRomanPSMT-3" transform="translate(647.265625 0)"/>
     <use xlink:href="#TimesNewRomanPSMT-12" transform="translate(672.265625 0)"/>
     <use xlink:href="#TimesNewRomanPSMT-3" transform="translate(700.046875 0)"/>
     <use xlink:href="#TimesNewRomanPSMT-14" transform="translate(725.046875 0)"/>
     <use xlink:href="#TimesNewRomanPSMT-15" transform="translate(775.046875 0)"/>
     <use xlink:href="#TimesNewRomanPSMT-13" transform="translate(825.046875 0)"/>
    </g>
   </g>
   <g id="text_13">
    <!-- Checks receive service credit only where a ground team can respond. -->
    <g style="fill: #83919d" transform="translate(72.008674 127.028808) scale(0.12 -0.12)">
     <defs>
      <path id="TimesNewRomanPSMT-26" d="M 3853 4334 
L 3950 2894 
L 3853 2894 
Q 3659 3541 3300 3825 
Q 2941 4109 2438 4109 
Q 2016 4109 1675 3895 
Q 1334 3681 1139 3212 
Q 944 2744 944 2047 
Q 944 1472 1128 1050 
Q 1313 628 1683 403 
Q 2053 178 2528 178 
Q 2941 178 3256 354 
Q 3572 531 3950 1056 
L 4047 994 
Q 3728 428 3303 165 
Q 2878 -97 2294 -97 
Q 1241 -97 663 684 
Q 231 1266 231 2053 
Q 231 2688 515 3219 
Q 800 3750 1298 4042 
Q 1797 4334 2388 4334 
Q 2847 4334 3294 4109 
Q 3425 4041 3481 4041 
Q 3566 4041 3628 4100 
Q 3709 4184 3744 4334 
L 3853 4334 
z
" transform="scale(0.015625)"/>
      <path id="TimesNewRomanPSMT-46" d="M 2631 1088 
Q 2516 522 2178 217 
Q 1841 -88 1431 -88 
Q 944 -88 581 321 
Q 219 731 219 1428 
Q 219 2103 620 2525 
Q 1022 2947 1584 2947 
Q 2006 2947 2278 2723 
Q 2550 2500 2550 2259 
Q 2550 2141 2473 2067 
Q 2397 1994 2259 1994 
Q 2075 1994 1981 2113 
Q 1928 2178 1911 2362 
Q 1894 2547 1784 2644 
Q 1675 2738 1481 2738 
Q 1169 2738 978 2506 
Q 725 2200 725 1697 
Q 725 1184 976 792 
Q 1228 400 1656 400 
Q 1963 400 2206 609 
Q 2378 753 2541 1131 
L 2631 1088 
z
" transform="scale(0.015625)"/>
      <path id="TimesNewRomanPSMT-5c" d="M 38 2863 
L 1372 2863 
L 1372 2747 
L 1306 2747 
Q 1166 2747 1095 2686 
Q 1025 2625 1025 2534 
Q 1025 2413 1128 2197 
L 1825 753 
L 2466 2334 
Q 2519 2463 2519 2588 
Q 2519 2644 2497 2672 
Q 2472 2706 2419 2726 
Q 2366 2747 2231 2747 
L 2231 2863 
L 3163 2863 
L 3163 2747 
Q 3047 2734 2984 2696 
Q 2922 2659 2847 2556 
Q 2819 2513 2741 2316 
L 1575 -541 
Q 1406 -956 1132 -1168 
Q 859 -1381 606 -1381 
Q 422 -1381 303 -1275 
Q 184 -1169 184 -1031 
Q 184 -900 270 -820 
Q 356 -741 506 -741 
Q 609 -741 788 -809 
Q 913 -856 944 -856 
Q 1038 -856 1148 -759 
Q 1259 -663 1372 -384 
L 1575 113 
L 547 2272 
Q 500 2369 397 2513 
Q 319 2622 269 2659 
Q 197 2709 38 2747 
L 38 2863 
z
" transform="scale(0.015625)"/>
      <path id="TimesNewRomanPSMT-4a" d="M 966 1044 
Q 703 1172 562 1401 
Q 422 1631 422 1909 
Q 422 2334 742 2640 
Q 1063 2947 1563 2947 
Q 1972 2947 2272 2747 
L 2878 2747 
Q 3013 2747 3034 2739 
Q 3056 2731 3066 2713 
Q 3084 2684 3084 2613 
Q 3084 2531 3069 2500 
Q 3059 2484 3036 2475 
Q 3013 2466 2878 2466 
L 2506 2466 
Q 2681 2241 2681 1891 
Q 2681 1491 2375 1206 
Q 2069 922 1553 922 
Q 1341 922 1119 984 
Q 981 866 932 777 
Q 884 688 884 625 
Q 884 572 936 522 
Q 988 472 1138 450 
Q 1225 438 1575 428 
Q 2219 413 2409 384 
Q 2700 344 2873 169 
Q 3047 -6 3047 -263 
Q 3047 -616 2716 -925 
Q 2228 -1381 1444 -1381 
Q 841 -1381 425 -1109 
Q 191 -953 191 -784 
Q 191 -709 225 -634 
Q 278 -519 444 -313 
Q 466 -284 763 25 
Q 600 122 533 198 
Q 466 275 466 372 
Q 466 481 555 628 
Q 644 775 966 1044 
z
M 1509 2797 
Q 1278 2797 1122 2612 
Q 966 2428 966 2047 
Q 966 1553 1178 1281 
Q 1341 1075 1591 1075 
Q 1828 1075 1981 1253 
Q 2134 1431 2134 1813 
Q 2134 2309 1919 2591 
Q 1759 2797 1509 2797 
z
M 934 0 
Q 788 -159 713 -296 
Q 638 -434 638 -550 
Q 638 -700 819 -813 
Q 1131 -1006 1722 -1006 
Q 2284 -1006 2551 -807 
Q 2819 -609 2819 -384 
Q 2819 -222 2659 -153 
Q 2497 -84 2016 -72 
Q 1313 -53 934 0 
z
" transform="scale(0.015625)"/>
     </defs>
     <use xlink:href="#TimesNewRomanPSMT-26"/>
     <use xlink:href="#TimesNewRomanPSMT-4b" transform="translate(66.703125 0)"/>
     <use xlink:href="#TimesNewRomanPSMT-48" transform="translate(116.703125 0)"/>
     <use xlink:href="#TimesNewRomanPSMT-46" transform="translate(161.09375 0)"/>
     <use xlink:href="#TimesNewRomanPSMT-4e" transform="translate(205.484375 0)"/>
     <use xlink:href="#TimesNewRomanPSMT-56" transform="translate(255.484375 0)"/>
     <use xlink:href="#TimesNewRomanPSMT-3" transform="translate(294.40625 0)"/>
     <use xlink:href="#TimesNewRomanPSMT-55" transform="translate(319.40625 0)"/>
     <use xlink:href="#TimesNewRomanPSMT-48" transform="translate(352.703125 0)"/>
     <use xlink:href="#TimesNewRomanPSMT-46" transform="translate(397.09375 0)"/>
     <use xlink:href="#TimesNewRomanPSMT-48" transform="translate(441.484375 0)"/>
     <use xlink:href="#TimesNewRomanPSMT-4c" transform="translate(485.875 0)"/>
     <use xlink:href="#TimesNewRomanPSMT-59" transform="translate(513.65625 0)"/>
     <use xlink:href="#TimesNewRomanPSMT-48" transform="translate(563.65625 0)"/>
     <use xlink:href="#TimesNewRomanPSMT-3" transform="translate(608.046875 0)"/>
     <use xlink:href="#TimesNewRomanPSMT-56" transform="translate(633.046875 0)"/>
     <use xlink:href="#TimesNewRomanPSMT-48" transform="translate(671.96875 0)"/>
     <use xlink:href="#TimesNewRomanPSMT-55" transform="translate(716.359375 0)"/>
     <use xlink:href="#TimesNewRomanPSMT-59" transform="translate(749.65625 0)"/>
     <use xlink:href="#TimesNewRomanPSMT-4c" transform="translate(799.65625 0)"/>
     <use xlink:href="#TimesNewRomanPSMT-46" transform="translate(827.4375 0)"/>
     <use xlink:href="#TimesNewRomanPSMT-48" transform="translate(871.828125 0)"/>
     <use xlink:href="#TimesNewRomanPSMT-3" transform="translate(916.21875 0)"/>
     <use xlink:href="#TimesNewRomanPSMT-46" transform="translate(941.21875 0)"/>
     <use xlink:href="#TimesNewRomanPSMT-55" transform="translate(985.609375 0)"/>
     <use xlink:href="#TimesNewRomanPSMT-48" transform="translate(1018.90625 0)"/>
     <use xlink:href="#TimesNewRomanPSMT-47" transform="translate(1063.296875 0)"/>
     <use xlink:href="#TimesNewRomanPSMT-4c" transform="translate(1113.296875 0)"/>
     <use xlink:href="#TimesNewRomanPSMT-57" transform="translate(1141.078125 0)"/>
     <use xlink:href="#TimesNewRomanPSMT-3" transform="translate(1168.859375 0)"/>
     <use xlink:href="#TimesNewRomanPSMT-52" transform="translate(1193.859375 0)"/>
     <use xlink:href="#TimesNewRomanPSMT-51" transform="translate(1243.859375 0)"/>
     <use xlink:href="#TimesNewRomanPSMT-4f" transform="translate(1293.859375 0)"/>
     <use xlink:href="#TimesNewRomanPSMT-5c" transform="translate(1321.640625 0)"/>
     <use xlink:href="#TimesNewRomanPSMT-3" transform="translate(1371.640625 0)"/>
     <use xlink:href="#TimesNewRomanPSMT-5a" transform="translate(1396.640625 0)"/>
     <use xlink:href="#TimesNewRomanPSMT-4b" transform="translate(1468.859375 0)"/>
     <use xlink:href="#TimesNewRomanPSMT-48" transform="translate(1518.859375 0)"/>
     <use xlink:href="#TimesNewRomanPSMT-55" transform="translate(1563.25 0)"/>
     <use xlink:href="#TimesNewRomanPSMT-48" transform="translate(1596.546875 0)"/>
     <use xlink:href="#TimesNewRomanPSMT-3" transform="translate(1640.9375 0)"/>
     <use xlink:href="#TimesNewRomanPSMT-44" transform="translate(1665.9375 0)"/>
     <use xlink:href="#TimesNewRomanPSMT-3" transform="translate(1710.328125 0)"/>
     <use xlink:href="#TimesNewRomanPSMT-4a" transform="translate(1735.328125 0)"/>
     <use xlink:href="#TimesNewRomanPSMT-55" transform="translate(1785.328125 0)"/>
     <use xlink:href="#TimesNewRomanPSMT-52" transform="translate(1818.625 0)"/>
     <use xlink:href="#TimesNewRomanPSMT-58" transform="translate(1868.625 0)"/>
     <use xlink:href="#TimesNewRomanPSMT-51" transform="translate(1918.625 0)"/>
     <use xlink:href="#TimesNewRomanPSMT-47" transform="translate(1968.625 0)"/>
     <use xlink:href="#TimesNewRomanPSMT-3" transform="translate(2018.625 0)"/>
     <use xlink:href="#TimesNewRomanPSMT-57" transform="translate(2043.625 0)"/>
     <use xlink:href="#TimesNewRomanPSMT-48" transform="translate(2071.40625 0)"/>
     <use xlink:href="#TimesNewRomanPSMT-44" transform="translate(2115.796875 0)"/>
     <use xlink:href="#TimesNewRomanPSMT-50" transform="translate(2160.1875 0)"/>
     <use xlink:href="#TimesNewRomanPSMT-3" transform="translate(2237.96875 0)"/>
     <use xlink:href="#TimesNewRomanPSMT-46" transform="translate(2262.96875 0)"/>
     <use xlink:href="#TimesNewRomanPSMT-44" transform="translate(2307.359375 0)"/>
     <use xlink:href="#TimesNewRomanPSMT-51" transform="translate(2351.75 0)"/>
     <use xlink:href="#TimesNewRomanPSMT-3" transform="translate(2401.75 0)"/>
     <use xlink:href="#TimesNewRomanPSMT-55" transform="translate(2426.75 0)"/>
     <use xlink:href="#TimesNewRomanPSMT-48" transform="translate(2460.046875 0)"/>
     <use xlink:href="#TimesNewRomanPSMT-56" transform="translate(2504.4375 0)"/>
     <use xlink:href="#TimesNewRomanPSMT-53" transform="translate(2543.359375 0)"/>
     <use xlink:href="#TimesNewRomanPSMT-52" transform="translate(2593.359375 0)"/>
     <use xlink:href="#TimesNewRomanPSMT-51" transform="translate(2643.359375 0)"/>
     <use xlink:href="#TimesNewRomanPSMT-47" transform="translate(2693.359375 0)"/>
     <use xlink:href="#TimesNewRomanPSMT-11" transform="translate(2743.359375 0)"/>
    </g>
   </g>
  </g>
 </g>
 <defs>
  <clipPath id="p5ab99f2e84">
   <rect x="0" y="0" width="476.220472" height="130.393701"/>
  </clipPath>
 </defs>
</svg>
